<svg version="1.0" xmlns="http://www.w3.org/2000/svg"
 width="50.000000pt" height="50.000000pt" viewBox="0 0 512 512"
 preserveAspectRatio="xMidYMid meet">

<g transform="translate(0,512) scale(0.1,-0.1)"
fill="currentColor" stroke="none">
<path d="M873 5108 c-28 -13 -55 -71 -87 -184 -56 -199 -81 -413 -73 -632 10
-300 70 -514 213 -764 31 -53 53 -102 49 -107 -3 -6 -22 -18 -43 -28 -20 -10
-66 -46 -102 -80 l-65 -62 108 -1 c81 0 112 4 123 14 19 19 78 31 317 63 184
25 230 28 514 28 361 0 340 -10 219 111 -55 55 -91 81 -159 113 -48 24 -85 47
-81 52 9 16 147 10 220 -9 161 -43 276 -129 337 -254 l35 -72 161 -2 161 -2
41 79 c87 168 265 269 469 269 117 0 117 -11 4 -65 -82 -40 -112 -61 -176
-125 -43 -43 -78 -82 -78 -87 0 -5 97 -7 238 -5 173 3 283 0 407 -13 268 -26
485 -61 500 -80 8 -9 43 -14 110 -15 55 -1 104 -1 110 -1 17 2 -69 82 -137
127 -38 25 -68 48 -68 51 0 4 27 54 59 112 104 185 149 308 181 496 51 302 26
630 -70 937 -35 112 -66 148 -127 148 -34 0 -53 -17 -307 -274 -254 -256 -350
-340 -439 -382 -32 -15 -40 -16 -63 -3 -25 13 -28 12 -68 -36 -22 -28 -59 -70
-82 -94 l-41 -44 -114 18 c-63 10 -117 23 -121 29 -4 6 -8 24 -8 39 0 34 8 36
-124 -33 l-105 -55 -35 34 c-19 18 -48 59 -65 90 -56 105 -53 104 -96 23 -20
-39 -52 -88 -70 -109 l-32 -38 -111 58 c-61 31 -113 57 -116 57 -3 0 -6 -13
-6 -29 0 -16 -6 -33 -12 -38 -12 -9 -194 -44 -225 -43 -6 0 -44 39 -84 88 -39
48 -76 89 -81 91 -5 1 -17 -4 -27 -13 -16 -15 -22 -13 -77 20 -117 70 -213
153 -460 396 -231 228 -254 248 -285 247 -19 0 -44 -5 -56 -11z"/>
<path d="M1575 3244 c-216 -22 -273 -41 -306 -105 -21 -42 -21 -51 -16 -259
10 -352 55 -482 189 -540 46 -21 73 -24 210 -28 253 -7 338 17 445 125 75 75
126 174 177 344 62 206 80 344 51 386 -20 29 -83 51 -185 63 -87 11 -494 21
-565 14z m640 -133 c71 -18 103 -81 73 -146 -18 -40 -403 -335 -438 -335 -9 0
-94 68 -190 151 -210 181 -257 226 -276 261 -12 23 -12 29 5 50 17 20 31 24
108 29 129 10 671 2 718 -10z"/>
<path d="M3065 3239 c-180 -17 -251 -37 -279 -81 -16 -26 8 -187 48 -319 90
-297 187 -438 344 -501 52 -20 74 -22 257 -23 196 0 201 1 257 27 98 46 147
142 168 333 14 124 13 389 -2 437 -16 56 -63 92 -134 106 -148 29 -463 39
-659 21z m630 -127 c17 -4 37 -20 45 -35 13 -24 13 -28 -6 -54 -20 -27 -150
-149 -342 -320 -50 -46 -98 -83 -106 -83 -21 0 -343 236 -408 300 -54 52 -58
59 -58 101 0 72 27 87 175 100 116 10 661 3 700 -9z"/>
<path d="M4140 3145 c-1 -12 -20 -34 -46 -54 -63 -46 -81 -92 -104 -269 -40
-298 -66 -384 -143 -469 -94 -102 -176 -126 -439 -127 l-178 -1 0 -49 c0 -26
9 -112 21 -190 35 -231 16 -404 -61 -556 -62 -123 -139 -170 -278 -170 -51 0
-112 7 -143 16 -30 8 -84 24 -121 35 l-68 20 0 43 0 43 58 12 c116 23 218 96
237 168 8 34 4 36 -38 18 -57 -23 -85 -19 -123 19 -42 42 -43 69 -3 109 l32
31 31 -37 c43 -51 84 -51 136 1 72 72 74 193 4 259 -55 51 -115 65 -311 70
-184 6 -280 -5 -342 -37 -89 -45 -115 -107 -86 -205 20 -72 58 -114 109 -122
36 -6 41 -3 71 33 l32 38 32 -31 c35 -36 38 -53 14 -94 -27 -45 -66 -56 -125
-35 -28 10 -52 15 -55 12 -12 -11 22 -69 64 -111 44 -45 120 -80 198 -94 39
-6 40 -8 43 -48 3 -42 3 -42 -40 -53 -24 -6 -83 -23 -133 -38 -115 -33 -239
-37 -300 -7 -84 41 -148 133 -195 280 -34 107 -38 267 -12 430 12 72 23 155
24 185 l3 55 -185 1 c-254 1 -330 19 -421 101 -80 73 -127 188 -153 378 -38
274 -46 307 -89 353 -21 23 -76 57 -81 50 -2 -2 -13 -39 -26 -83 -59 -207
-137 -383 -211 -476 -43 -55 -18 -65 66 -25 28 12 76 47 108 76 32 29 60 50
64 47 7 -8 -44 -97 -120 -212 -76 -114 -142 -200 -229 -296 -51 -58 -64 -78
-53 -83 32 -12 133 17 223 64 50 27 92 45 92 41 0 -4 -34 -52 -75 -106 -41
-54 -89 -126 -105 -161 -50 -104 -88 -284 -61 -284 6 0 36 23 68 51 62 54 140
105 149 96 3 -3 -3 -22 -14 -44 -77 -149 -94 -388 -38 -518 l13 -30 27 59 c30
67 73 129 85 122 5 -3 11 -34 14 -70 7 -70 31 -150 79 -257 30 -67 50 -83 56
-43 5 31 33 104 40 104 4 0 19 -31 34 -68 50 -123 98 -192 218 -312 l115 -115
3 70 c2 39 7 74 11 78 5 5 36 -29 69 -75 82 -114 148 -176 282 -267 210 -142
655 -391 700 -391 27 0 150 64 434 227 332 190 422 261 533 420 35 51 69 91
74 88 5 -4 9 -35 9 -71 0 -35 3 -64 8 -64 16 0 149 129 204 199 63 79 105 154
133 239 20 63 29 59 54 -24 10 -32 23 -60 28 -61 23 -8 114 230 128 335 4 28
11 52 15 52 13 0 48 -53 76 -116 14 -32 29 -53 34 -48 24 25 40 124 40 242 0
105 -4 134 -25 198 -14 42 -34 93 -45 115 -11 21 -17 39 -12 39 15 0 95 -57
156 -110 32 -28 62 -47 68 -44 15 10 1 113 -26 194 -31 90 -83 183 -151 267
-51 64 -66 89 -47 81 4 -1 48 -23 97 -48 70 -35 103 -45 152 -48 35 -3 63 0
63 5 0 5 -25 33 -56 63 -120 118 -374 493 -350 517 3 3 31 -18 63 -47 62 -56
154 -106 179 -96 11 4 4 20 -32 68 -64 87 -124 213 -179 379 -38 113 -45 145
-37 163 6 14 7 28 1 37 -7 11 -9 10 -9 -6z m-2458 -1107 c21 -6 55 -25 74 -42
l36 -31 9 -140 c14 -214 36 -311 99 -434 43 -84 92 -136 163 -169 58 -28 63
-33 81 -83 23 -68 109 -155 189 -193 111 -52 260 -70 362 -42 141 37 254 129
301 243 19 48 28 59 61 71 59 23 92 50 138 114 77 103 116 248 134 485 11 149
20 171 85 206 32 17 58 22 116 21 66 0 83 -4 138 -33 81 -44 186 -154 234
-246 37 -73 78 -191 78 -229 l0 -22 -87 15 c-151 25 -314 -3 -466 -79 -108
-55 -106 -51 -66 -177 31 -100 34 -117 33 -233 0 -136 -21 -235 -68 -329 -39
-76 -137 -201 -212 -269 -104 -96 -101 -96 -106 2 -4 80 -24 136 -47 136 -5 0
-19 -28 -30 -63 -38 -114 -128 -231 -279 -364 l-84 -73 -46 32 c-67 46 -221
203 -267 272 -21 33 -50 90 -65 128 -15 37 -29 71 -32 74 -16 15 -43 -56 -53
-140 l-11 -91 -105 105 c-177 177 -247 319 -257 521 -6 127 8 217 50 318 22
52 28 78 22 89 -6 8 -39 30 -74 48 -156 81 -371 120 -508 92 -40 -8 -75 -11
-78 -7 -2 4 0 28 6 53 47 210 194 404 348 461 46 17 133 19 184 3z m613 -858
c63 -50 131 -65 285 -64 151 0 197 12 256 64 26 23 45 30 74 30 46 0 48 -6 20
-59 -27 -53 -101 -116 -169 -143 -48 -19 -74 -22 -191 -22 -118 0 -142 3 -194
23 -35 14 -81 43 -109 70 -49 45 -92 113 -80 125 17 16 73 4 108 -24z"/>
<path d="M955 3140 c-3 -5 -1 -10 4 -10 6 0 11 5 11 10 0 6 -2 10 -4 10 -3 0
-8 -4 -11 -10z"/>
<path d="M2507 2998 c-9 -7 -44 -84 -77 -171 -33 -87 -73 -184 -90 -215 -44
-83 -124 -186 -186 -239 l-54 -47 0 -81 c0 -109 35 -242 67 -252 8 -3 10 18 6
75 -7 98 7 145 92 320 74 152 98 182 173 219 109 54 236 31 322 -59 51 -52
182 -310 197 -389 7 -34 8 -74 2 -108 -9 -57 -7 -67 10 -57 25 16 53 124 58
223 l6 103 -29 22 c-73 56 -181 194 -236 303 -17 33 -53 121 -79 195 -29 81
-57 142 -70 153 -25 20 -88 23 -112 5z"/>
</g>
</svg>
